<?xml version="1.0" encoding="utf-8"?>
<!-- Generator: Adobe Illustrator 16.0.0, SVG Export Plug-In . SVG Version: 6.00 Build 0)  -->
<!DOCTYPE svg PUBLIC "-//W3C//DTD SVG 1.1//EN" "http://www.w3.org/Graphics/SVG/1.1/DTD/svg11.dtd">
<svg version="1.1" id="Layer_1" xmlns="http://www.w3.org/2000/svg" xmlns:xlink="http://www.w3.org/1999/xlink" x="0px" y="0px"
	 width="173px" height="38px" viewBox="0 0 173 38" enable-background="new 0 0 173 38" xml:space="preserve">
<g>
	<path fill="#006EA9" d="M15.301,10.808c5.759,0,9.719,4.644,9.719,9.971c0,5.328-3.887,10.043-9.611,10.043H4.97v-2.375h10.295
		c4.103,0,7.379-3.816,7.379-7.667c0-3.851-3.24-7.595-7.343-7.595H4.97v-2.376H15.301z"/>
	<path fill="#006EA9" d="M35.629,12.607L27.89,30.921l-2.124-0.936l8.351-19.753h13.165v2.375H35.629z"/>
	<path fill="#006EA9" d="M84.108,30.965h-0.36l-2.664-5.471l-2.664,5.471h-0.36l-9.863-20.337h2.34l7.703,15.55l1.583-3.239
		l-5.939-12.311h2.339l4.859,9.791l4.859-9.791h2.34l-5.975,12.311l1.62,3.239l7.703-15.55h2.34L84.108,30.965z"/>
	<path fill="#006EA9" d="M109.712,10.185c4.14,0,6.911,3.348,6.911,7.199s-2.844,7.199-7.055,7.199H96.286v-2.376h13.39
		c2.556,0,4.572-2.412,4.572-4.823c0-2.376-2.016-4.823-4.572-4.823h-13.39v-2.376H109.712z M109.712,17.046
		c4.14,0,6.911,3.348,6.911,7.199c0,3.852-2.844,7.199-7.055,7.199H96.286v-2.375h13.39c2.556,0,4.572-2.412,4.572-4.824
		c0-2.375-2.016-4.823-4.572-4.823h-13.39v-2.375H109.712z"/>
	<g>
		<path fill="#006EA9" d="M129.94,31.872c-6.09,0-11.021-4.932-11.021-11.021S123.851,9.83,129.94,9.83
			c6.089,0,11.021,4.932,11.021,11.021S136.03,31.872,129.94,31.872z M122.871,15.177c-1.248,1.545-1.991,3.535-1.991,5.674
			s0.743,4.129,1.991,5.674l5.673-5.674L122.871,15.177z M135.614,13.781c-1.545-1.248-3.535-1.99-5.674-1.99
			c-2.139,0-4.129,0.743-5.674,1.99l5.674,5.673L135.614,13.781z M129.94,22.247l-5.674,5.673c1.545,1.248,3.535,1.99,5.674,1.99
			c2.139,0,4.129-0.743,5.674-1.99L129.94,22.247z M137.01,26.524c1.248-1.545,1.99-3.535,1.99-5.674s-0.743-4.129-1.99-5.674
			l-5.674,5.674L137.01,26.524z"/>
		<path fill="#006EA9" d="M129.94,32.122c-6.215,0-11.271-5.056-11.271-11.271S123.726,9.58,129.94,9.58
			c6.214,0,11.271,5.056,11.271,11.271S136.155,32.122,129.94,32.122z M129.94,10.08c-5.939,0-10.771,4.832-10.771,10.771
			s4.832,10.771,10.771,10.771s10.771-4.832,10.771-10.771S135.879,10.08,129.94,10.08z M129.94,30.161
			c-2.127,0-4.198-0.727-5.832-2.046l-0.216-0.174l6.048-6.047l6.047,6.047l-0.216,0.174
			C134.138,29.434,132.067,30.161,129.94,30.161z M124.643,27.897c1.509,1.139,3.379,1.763,5.298,1.763s3.788-0.625,5.297-1.763
			l-5.297-5.297L124.643,27.897z M137.03,26.898l-6.047-6.047l6.047-6.047l0.174,0.216c1.319,1.634,2.046,3.705,2.046,5.831
			s-0.727,4.197-2.046,5.831L137.03,26.898z M131.69,20.851l5.297,5.297c1.139-1.509,1.763-3.379,1.763-5.297
			s-0.625-3.788-1.763-5.297L131.69,20.851z M122.851,26.898l-0.174-0.216c-1.32-1.634-2.046-3.704-2.046-5.831
			s0.727-4.197,2.046-5.831l0.174-0.216l6.047,6.047L122.851,26.898z M122.894,15.553c-1.139,1.509-1.764,3.379-1.764,5.297
			s0.625,3.789,1.764,5.297l5.297-5.297L122.894,15.553z M129.94,19.808l-6.048-6.047l0.216-0.174
			c1.634-1.319,3.705-2.046,5.832-2.046c2.126,0,4.197,0.727,5.831,2.046l0.216,0.174L129.94,19.808z M124.643,13.804l5.298,5.297
			l5.297-5.297c-1.509-1.139-3.379-1.763-5.297-1.763S126.152,12.665,124.643,13.804z"/>
	</g>
	<g>
		<path fill="#006EA9" d="M58.291,31.872c-6.09,0-11.021-4.932-11.021-11.021S52.201,9.83,58.291,9.83
			c6.089,0,11.021,4.932,11.021,11.021S64.38,31.872,58.291,31.872z M51.221,15.177c-1.248,1.545-1.991,3.535-1.991,5.674
			s0.743,4.129,1.991,5.674l5.673-5.674L51.221,15.177z M63.965,13.781c-1.545-1.248-3.535-1.99-5.674-1.99
			c-2.139,0-4.129,0.743-5.674,1.99l5.674,5.673L63.965,13.781z M58.291,22.247l-5.674,5.673c1.545,1.248,3.535,1.99,5.674,1.99
			c2.139,0,4.129-0.743,5.674-1.99L58.291,22.247z M65.361,26.524c1.248-1.545,1.99-3.535,1.99-5.674s-0.743-4.129-1.99-5.674
			l-5.674,5.674L65.361,26.524z"/>
		<path fill="#006EA9" d="M58.291,32.122c-6.215,0-11.271-5.056-11.271-11.271S52.076,9.58,58.291,9.58
			c6.214,0,11.271,5.056,11.271,11.271S64.505,32.122,58.291,32.122z M58.291,10.08c-5.939,0-10.771,4.832-10.771,10.771
			s4.832,10.771,10.771,10.771s10.771-4.832,10.771-10.771S64.23,10.08,58.291,10.08z M58.291,30.161
			c-2.127,0-4.198-0.727-5.832-2.046l-0.216-0.174l6.048-6.047l6.047,6.047l-0.216,0.174C62.488,29.434,60.417,30.161,58.291,30.161
			z M52.993,27.897c1.509,1.139,3.379,1.763,5.298,1.763s3.788-0.625,5.297-1.763l-5.297-5.297L52.993,27.897z M65.381,26.898
			l-6.047-6.047l6.047-6.047l0.174,0.216c1.319,1.634,2.046,3.705,2.046,5.831s-0.727,4.197-2.046,5.831L65.381,26.898z
			 M60.041,20.851l5.297,5.297c1.139-1.509,1.763-3.379,1.763-5.297s-0.625-3.788-1.763-5.297L60.041,20.851z M51.201,26.898
			l-0.174-0.216c-1.32-1.634-2.046-3.704-2.046-5.831s0.727-4.197,2.046-5.831l0.174-0.216l6.047,6.047L51.201,26.898z
			 M51.244,15.553c-1.139,1.509-1.764,3.379-1.764,5.297s0.625,3.789,1.764,5.297l5.297-5.297L51.244,15.553z M58.291,19.808
			l-6.048-6.047l0.216-0.174c1.634-1.319,3.705-2.046,5.832-2.046c2.126,0,4.197,0.727,5.831,2.046l0.216,0.174L58.291,19.808z
			 M52.993,13.804l5.298,5.297l5.297-5.297c-1.509-1.139-3.379-1.763-5.297-1.763S54.502,12.665,52.993,13.804z"/>
	</g>
	<path fill="#006EA9" d="M143.458,12.468v-2.376h23.829v2.376H143.458z M156.561,16.667v14.254h-2.376V16.667h-10.727v-2.375h23.829
		v2.375H156.561z"/>
</g>
</svg>
